# xmcd
#
# Track frame offsets:
# 150
# 21012
# 50813
# 91141
# 115492
# 137760
# 170971
# 191272
# 217190
# 237582
# 273263
#
# Disc length: 3993 seconds
#
#
# Revision: 0
# Processed by: cddbd v1.5.2PL0 Copyright (c) Steve Scherf et al.
# Submitted via: FreeRIP 2.96 
#
DISCID=a60f970b
DTITLE=Iny Lorentz - Die Rose von Asturien CD1v6
DYEAR=2009
DGENRE=Speech
TTITLE0=01 Die Rose von Asturien
TTITLE1=02 Die Rose von Asturien
TTITLE2=03 Die Rose von Asturien
TTITLE3=04 Die Rose von Asturien
TTITLE4=05 Die Rose von Asturien
TTITLE5=06 Die Rose von Asturien
TTITLE6=07 Die Rose von Asturien
TTITLE7=08 Die Rose von Asturien
TTITLE8=09 Die Rose von Asturien
TTITLE9=10 Die Rose von Asturien
TTITLE10=11 Die Rose von Asturien
EXTD=gelesen von Dana Geissler\n
EXTT0=
EXTT1=
EXTT2=
EXTT3=
EXTT4=
EXTT5=
EXTT6=
EXTT7=
EXTT8=
EXTT9=
EXTT10=
PLAYORDER=
